<svg id="Layer_1" data-name="Layer 1" xmlns="http://www.w3.org/2000/svg" viewBox="0 0 44.49 44.49"><defs><style>.cls-1{fill:#25326f;}.cls-2{fill:#fff;}</style></defs><title>jio-logo-blue</title><path class="cls-1" d="M22.24,0A22.25,22.25,0,1,0,44.49,22.24,22.24,22.24,0,0,0,22.24,0"/><path class="cls-2" d="M15.72,13.42H15c-1.4,0-2.17.79-2.17,2.38v7.65c0,2-.67,2.66-2.23,2.66a3.74,3.74,0,0,1-3-1.51,2.57,2.57,0,0,0-1.69,2.56c0,2.05,1.92,3.31,5.48,3.31,4.33,0,6.6-2.18,6.6-6.94V15.8c0-1.59-.76-2.38-2.22-2.38m6.7,3.86h-.51c-1.26,0-2.2.59-2.2,2.38v8.19c0,1.82.92,2.39,2.25,2.39h.51c1.25,0,2.15-.62,2.15-2.39V19.66c0-1.84-.87-2.38-2.2-2.38m-.28-5.94a2.29,2.29,0,0,0-2.59,2.31c0,1.43,1,2.33,2.66,2.33a2.3,2.3,0,0,0,2.59-2.33c0-1.44-1-2.31-2.66-2.31M33,17.15c-4.2,0-7,2.67-7,6.63s2.68,6.69,6.91,6.69,7-2.62,7-6.66S37.1,17.15,33,17.15M32.9,26.7a2.72,2.72,0,0,1-2.76-2.92,2.77,2.77,0,1,1,5.53,0A2.76,2.76,0,0,1,32.9,26.7"/></svg>